<svg width="1170" height="318" viewBox="0 0 1170 318" fill="none" xmlns="http://www.w3.org/2000/svg">
<path d="M0.219971 253.89H41.24L43.33 283.11L72.76 253.89H125.26L55.12 317.97H8.35995L0.219971 253.89Z" fill="white"/>
<path d="M155.74 317.97H108.46L139.46 253.89H186.84L155.74 317.97Z" fill="white"/>
<path d="M171.3 317.97L202.3 253.89H249.68L224.84 305.03H285.58L279.32 317.97H171.3Z" fill="white"/>
<path d="M418.67 317.97H371.29L381.94 296.05H352.82L342.17 317.97H294.89L320.15 265.68C320.78 264.57 321.68 263.31 322.86 261.92C324.04 260.53 325.42 259.24 326.98 258.06C328.55 256.88 330.27 255.89 332.15 255.09C334.03 254.29 336.01 253.89 338.1 253.89H449.77L418.67 317.97ZM359.07 283.11H388.19L396.02 266.83H369.2C368.43 266.83 367.77 267.07 367.22 267.56C366.66 268.05 366.21 268.57 365.86 269.13L359.08 283.12L359.07 283.11Z" fill="white"/>
<path d="M503.12 266.83L509.38 253.89H617.51L611.25 266.83H580.46L555.62 317.97H508.13L532.97 266.83H503.12Z" fill="white"/>
<path d="M632.97 253.89H758.53C759.23 253.89 759.76 254.41 760.15 255.46C760.53 256.5 760.44 257.65 759.89 258.9L753.63 271.84C752.45 274.21 751.14 276.42 749.72 278.47C748.29 280.52 746.54 282.35 744.45 283.95C742.36 285.55 739.8 286.87 736.78 287.92C733.75 288.96 730.08 289.62 725.77 289.9L733.91 317.98H687.26L679.22 288.96C679.22 288.61 679.2 288.23 679.17 287.81C679.14 287.39 679.12 286.91 679.12 286.35C679.12 286.21 679.14 286 679.17 285.72C679.21 285.44 679.26 285.13 679.33 284.78C679.68 284.43 679.99 284.26 680.27 284.26H700.1L708.55 266.83H674.11L649.27 317.97H601.99L632.99 253.89H632.97Z" fill="white"/>
<path d="M870.53 317.97H823.15L833.8 296.05H804.68L794.03 317.97H746.75L772.01 265.68C772.64 264.57 773.54 263.31 774.72 261.92C775.9 260.53 777.28 259.24 778.84 258.06C780.41 256.88 782.13 255.89 784.01 255.09C785.89 254.29 787.87 253.89 789.96 253.89H901.63L870.53 317.97ZM810.93 283.11H840.05L847.88 266.83H821.06C820.29 266.83 819.63 267.07 819.08 267.56C818.52 268.05 818.07 268.57 817.72 269.13L810.94 283.12L810.93 283.11Z" fill="white"/>
<path d="M1009.88 317.97H977.21C976.45 317.97 975.44 317.85 974.18 317.6C972.93 317.36 971.64 317.04 970.32 316.66C969 316.28 967.8 315.82 966.72 315.3C965.64 314.78 964.93 314.24 964.58 313.68L948.3 287.27L933.37 317.96H886.09L917.09 253.88H949.55C950.31 253.88 951.29 253.99 952.47 254.19C953.65 254.39 954.87 254.68 956.12 255.02C957.37 255.37 958.56 255.82 959.67 256.38C960.78 256.94 961.65 257.56 962.28 258.26L978.77 284.35L993.49 253.87H1040.98L1009.88 317.95V317.97Z" fill="white"/>
<path d="M1025.44 317.97L1031.7 305.03H1086.39C1086.74 305.03 1087.02 304.75 1087.22 304.19L1087.74 303.04C1087.81 302.9 1087.83 302.78 1087.79 302.68L1087.74 302.52L1050.79 280.71C1049.82 280.15 1049.15 279.4 1048.81 278.47C1048.46 277.53 1048.29 276.47 1048.29 275.29C1048.29 273.27 1048.67 271.1 1049.44 268.77C1050.2 266.44 1051.08 264.47 1052.05 262.87L1054.03 258.9C1054.8 257.51 1055.91 256.32 1057.37 255.35C1058.83 254.38 1060.33 253.89 1061.86 253.89H1169.78L1163.52 266.83H1100.58C1099.75 266.83 1099.12 267.35 1098.7 268.39C1098.49 269.43 1098.63 269.96 1099.12 269.96L1143.16 296.16C1144.13 296.72 1144.8 297.46 1145.14 298.4C1145.49 299.34 1145.66 300.33 1145.66 301.37C1145.66 302.69 1145.28 304.22 1144.51 305.96L1140.86 313.68C1139.47 316.53 1137.21 317.96 1134.08 317.96H1025.43L1025.44 317.97Z" fill="white"/>
<path d="M614.78 25.57V160.36L611.2 163.92L493.51 147.74L492.89 146.98L464.72 112.27L464.51 112.06L463.1 110.27L435.21 75.94L433.28 73.56L405.87 39.78L403.46 36.85L376.19 3.25L493.6 1.67001C506.82 5.08001 516.19 13.79 525.97 26.49L569.97 80.07L614.01 26.49C614.25 26.18 614.49 25.87 614.77 25.56L614.78 25.57Z" fill="#14B814"/>
<path d="M762.94 0.0299988L643.46 146.98L643.43 147.02C635.99 154.66 626.52 161.58 614.92 164.2C613.82 164.48 612.68 164.68 611.51 164.85C609.37 165.16 607.14 165.33 604.86 165.33H531.52C514.27 165.33 500.91 156.72 492.96 147.01V146.97H598.04C598.04 146.97 586.64 128.62 569.05 128.62H501.67C485.62 128.62 472.92 121.18 464.86 112.27L464.65 112.06C464.1 111.47 463.58 110.89 463.1 110.27H567.91C567.91 110.27 555.72 91.92 538.92 91.92H471.81C456.01 91.92 443.44 84.69 435.35 75.94C434.59 75.18 433.9 74.36 433.25 73.56H537.78C537.78 73.56 526.38 55.21 508.79 55.21H441.99C426.5 55.21 414.06 48.22 406.01 39.78C405.05 38.81 404.19 37.85 403.39 36.85H507.65C507.65 36.85 496.22 18.5 478.66 18.5H412.28C396.89 18.5 384.49 11.61 376.33 3.25C375.3 2.18 374.33 1.11001 373.44 0.0100098H480.07C485.1 0.0100098 489.61 0.560004 493.74 1.66C506.96 5.07 516.33 13.78 526.11 26.48L570.11 80.06L614.15 26.48C614.39 26.17 614.63 25.86 614.91 25.55C627.75 9.39999 647.24 0 667.93 0H762.93L762.94 0.0299988Z" fill="#023784"/>
</svg>
